<?xml version="1.0" encoding="UTF-8" standalone="no"?>
<svg
   width="1844.9601"
   height="2000.0001"
   viewBox="0 0 488.14569 529.16669"
   version="1.1"
   id="svg1143"
   inkscape:export-filename="/home/skerung9d/Desktop/parah/logo 1.png"
   inkscape:export-xdpi="300"
   inkscape:export-ydpi="300"
   inkscape:version="1.1 (1:1.1+202105261517+ce6663b3b7)"
   sodipodi:docname="alvistack-icon-color.svg"
   xmlns:inkscape="http://www.inkscape.org/namespaces/inkscape"
   xmlns:sodipodi="http://sodipodi.sourceforge.net/DTD/sodipodi-0.dtd"
   xmlns="http://www.w3.org/2000/svg"
   xmlns:svg="http://www.w3.org/2000/svg"
   xmlns:rdf="http://www.w3.org/1999/02/22-rdf-syntax-ns#"
   xmlns:cc="http://creativecommons.org/ns#"
   xmlns:dc="http://purl.org/dc/elements/1.1/">
  <defs
     id="defs1137" />
  <sodipodi:namedview
     id="base"
     pagecolor="#ffffff"
     bordercolor="#666666"
     borderopacity="1.0"
     inkscape:pageopacity="0"
     inkscape:pageshadow="2"
     inkscape:zoom="0.125"
     inkscape:cx="-1564"
     inkscape:cy="2444"
     inkscape:document-units="mm"
     inkscape:current-layer="layer2"
     inkscape:document-rotation="0"
     showgrid="false"
     inkscape:snap-grids="false"
     inkscape:snap-to-guides="false"
     inkscape:window-width="1920"
     inkscape:window-height="1016"
     inkscape:window-x="0"
     inkscape:window-y="27"
     inkscape:window-maximized="1"
     showguides="true"
     inkscape:guide-bbox="true"
     inkscape:pagecheckerboard="0"
     height="101mm"
     width="318mm"
     units="px" />
  <metadata
     id="metadata1140">
    <rdf:RDF>
      <cc:Work
         rdf:about="">
        <dc:format>image/svg+xml</dc:format>
        <dc:type
           rdf:resource="http://purl.org/dc/dcmitype/StillImage" />
      </cc:Work>
    </rdf:RDF>
  </metadata>
  <g
     inkscape:groupmode="layer"
     id="layer2"
     inkscape:label="VERTICAL"
     style="display:inline"
     transform="translate(-353.38166,-320.05207)">
    <g
       id="g190"
       transform="matrix(0.61538462,0,0,0.61538462,135.91602,123.09695)"
       style="stroke-width:1.625"
       inkscape:export-filename="/home/hswong3i/Documents/alvistack/ansible-collection-kubernetes/docs/images/icon/color/alvistack-icon-color.png"
       inkscape:export-xdpi="95.999992"
       inkscape:export-ydpi="95.999992">
      <path
         d="M 1054.7891,784.86062 C 991.98326,674.66698 891.08579,589.07419 769.89547,546.10774 c -1.47379,-0.56684 -2.8342,-1.13368 -4.30798,-1.58715 0,0 -4.90559,-2.4327 -15.98488,-2.26736 -22.21765,0.33149 -40.58573,14.05762 -47.84128,33.55691 L 530.57575,1116.6886 c -11.6769,36.6178 -45.91402,63.2593 -86.38637,63.2593 -50.222,0 -90.80772,-40.6991 -90.80772,-90.6944 0,-9.6362 1.58715,-18.9324 4.30798,-27.6617 L 532.61637,499.06004 c 7.82239,-24.60084 30.79104,-68.83959 42.96645,-87.86015 5.4058,-8.44499 13.83089,-18.13887 18.81908,-23.46716 27.88851,-30.15588 64.50635,-52.03589 105.77228,-61.78553 15.87152,-3.85451 32.42323,-5.89513 49.42843,-5.89513 16.32498,0 32.08312,2.38072 47.38779,5.89513 9.96647,2.45965 43.53626,14.61331 48.97495,17.34529 3.83772,1.92778 7.64318,3.93061 11.3368,6.12187 4.41718,2.62053 8.70664,5.45784 12.92394,8.38923 4.21388,2.92901 8.36476,5.95839 12.35711,9.1828 53.07234,42.86359 81.85165,132.07365 81.85165,132.07365 z"
         style="fill:#b12029;fill-opacity:1;fill-rule:nonzero;stroke:none;stroke-width:18.4223"
         id="path84-1-8-8-5-4-5-8-9-1-8-1"
         sodipodi:nodetypes="cccsccssccsccscaaascc" />
      <path
         d="m 1146.6184,1089.2493 c 0,49.9953 -40.6991,90.6944 -90.8077,90.6944 -20.1795,0 -38.9986,-6.5754 -54.0765,-17.7988 -15.07796,-11.3368 -26.64149,-27.095 -32.42326,-45.4606 h -0.11337 L 881.33742,838.59278 c 109.74017,31.06282 173.45298,73.00896 241.24698,165.63052 v 0.1134 c 1.9273,3.7412 3.6278,7.4823 5.2149,11.2234 0,0 10.8444,30.364 14.5111,46.0274 2.127,9.0861 4.308,17.9122 4.308,27.6618"
         style="fill:#ea6953;fill-opacity:1;fill-rule:nonzero;stroke:none;stroke-width:18.4223"
         id="path88-5-2-6-5-1-4-41-1-3-2-5"
         sodipodi:nodetypes="cscccccccac" />
      <path
         d="m 1122.583,1004.1122 v 0.1134 C 1054.789,911.60396 991.07619,869.65782 881.33602,838.59501 c 0,0 -75.61641,-238.52615 -81.17144,-256.43828 -0.79358,-2.38073 -3.74114,-12.81058 -7.93576,-18.70571 -5.32829,-7.70902 -13.26405,-13.71752 -22.33348,-17.3453 121.19033,42.96645 222.08779,128.55925 284.89366,238.75288 0,0 67.6806,216.9862 67.794,219.2536"
         style="fill:#cb3725;fill-opacity:1;fill-rule:nonzero;stroke:none;stroke-width:18.4223"
         id="path92-1-2-6-11-1-30-2-7-6-6-4"
         sodipodi:nodetypes="cccccccc" />
    </g>
  </g>
</svg>
